<svg width="200" height="200" viewBox="0 0 200 200" fill="none" xmlns="http://www.w3.org/2000/svg">
    <path d="M79.223 173L119.314 26.9999" stroke="#848484"/>
    <path d="M100 100L84.8425 156.569L58.589 141.411L100 100Z"
          fill="white" stroke="black" stroke-width="4" stroke-linejoin="round"/>
    <path d="M100 100L58.589 141.411L43.4315 115.157L100 100Z"
          fill="gray" stroke="black" stroke-width="4" stroke-linejoin="round"/>
    <path d="M100 100L43.4315 115.158V84.8425L100 100Z"
          fill="white" stroke="black" stroke-width="4" stroke-linejoin="round"/>
    <path d="M100 100L43.4315 84.8425L58.589 58.589L100 100Z"
          fill="gray" stroke="black" stroke-width="4" stroke-linejoin="round"/>
    <path d="M100 100L58.589 58.589L79.2945 22.726L115.158 43.4315L100 100Z"
          fill="yellow" stroke="black" stroke-width="4" stroke-linejoin="round"/>
    <path d="M100 100L115.157 43.4315L141.411 58.589L100 100Z"
          fill="white" stroke="black" stroke-width="4" stroke-linejoin="round"/>
    <path d="M100 100L141.411 58.589L156.569 84.8425L100 100Z"
          fill="white" stroke="black" stroke-width="4" stroke-linejoin="round"/>
    <path d="M100 100L156.569 84.8425L177.274 120.706L141.411 141.411L100 100Z"
          fill="gray" stroke="black" stroke-width="4" stroke-linejoin="round"/>
    <path d="M100 100L141.411 141.411L120.706 177.274L84.8425 156.569L100 100Z"
          fill="white" stroke="black" stroke-width="4" stroke-linejoin="round"/>
    <path d="M68.2715 163H67.1816V155.775L64.9961 156.578V155.594L68.1016 154.428H68.2715V163Z"
          fill="#5177FF"/>
<!--    <path d="M161.963 63.4629V64.3828H161.764C160.92 64.3984 160.248 64.6484 159.748 65.1328C159.248 65.6172 158.959 66.2988 158.881 67.1777C159.33 66.6621 159.943 66.4043 160.721 66.4043C161.463 66.4043 162.055 66.666 162.496 67.1895C162.941 67.7129 163.164 68.3887 163.164 69.2168C163.164 70.0957 162.924 70.7988 162.443 71.3262C161.967 71.8535 161.326 72.1172 160.521 72.1172C159.705 72.1172 159.043 71.8047 158.535 71.1797C158.027 70.5508 157.773 69.7422 157.773 68.7539V68.3379C157.773 66.7676 158.107 65.5684 158.775 64.7402C159.447 63.9082 160.445 63.4824 161.77 63.4629H161.963ZM160.539 67.3066C160.168 67.3066 159.826 67.418 159.514 67.6406C159.201 67.8633 158.984 68.1426 158.863 68.4785V68.877C158.863 69.5801 159.021 70.1465 159.338 70.5762C159.654 71.0059 160.049 71.2207 160.521 71.2207C161.01 71.2207 161.393 71.041 161.67 70.6816C161.951 70.3223 162.092 69.8516 162.092 69.2695C162.092 68.6836 161.949 68.2109 161.664 67.8516C161.383 67.4883 161.008 67.3066 160.539 67.3066Z"-->
<!--          fill="#5177FF"/>-->
<!--    <path d="M60.2715 38H59.1816V30.7754L56.9961 31.5781V30.5938L60.1016 29.4277H60.2715V38Z"-->
<!--          fill="#FF0303"/>-->
<!--    <path d="M136.285 168.207H137.1C137.611 168.199 138.014 168.064 138.307 167.803C138.6 167.541 138.746 167.188 138.746 166.742C138.746 165.742 138.248 165.242 137.252 165.242C136.783 165.242 136.408 165.377 136.127 165.646C135.85 165.912 135.711 166.266 135.711 166.707H134.627C134.627 166.031 134.873 165.471 135.365 165.025C135.861 164.576 136.49 164.352 137.252 164.352C138.057 164.352 138.688 164.564 139.145 164.99C139.602 165.416 139.83 166.008 139.83 166.766C139.83 167.137 139.709 167.496 139.467 167.844C139.229 168.191 138.902 168.451 138.488 168.623C138.957 168.771 139.318 169.018 139.572 169.361C139.83 169.705 139.959 170.125 139.959 170.621C139.959 171.387 139.709 171.994 139.209 172.443C138.709 172.893 138.059 173.117 137.258 173.117C136.457 173.117 135.805 172.9 135.301 172.467C134.801 172.033 134.551 171.461 134.551 170.75H135.641C135.641 171.199 135.787 171.559 136.08 171.828C136.373 172.098 136.766 172.232 137.258 172.232C137.781 172.232 138.182 172.096 138.459 171.822C138.736 171.549 138.875 171.156 138.875 170.645C138.875 170.148 138.723 169.768 138.418 169.502C138.113 169.236 137.674 169.1 137.1 169.092H136.285V168.207Z"-->
<!--          fill="#FF0303"/>-->
</svg>
